<mxfile host="app.diagrams.net" modified="2023-12-04T05:18:07.880Z" agent="Mozilla/5.0 (Windows NT 10.0; Win64; x64) AppleWebKit/537.36 (KHTML, like Gecko) Chrome/119.0.0.0 Safari/537.36" etag="ICwBO2p1Zfh3iI1OxWGz" version="22.1.5" type="device">
  <diagram name="페이지-1" id="8Ecsn-h350nhsmcz41mu">
    <mxGraphModel dx="1235" dy="628" grid="1" gridSize="10" guides="1" tooltips="1" connect="1" arrows="1" fold="1" page="1" pageScale="1" pageWidth="827" pageHeight="1169" math="0" shadow="0">
      <root>
        <mxCell id="0" />
        <mxCell id="1" parent="0" />
        <mxCell id="BeKyxp2tZrk1aa1WLt2o-21" style="edgeStyle=orthogonalEdgeStyle;rounded=0;orthogonalLoop=1;jettySize=auto;html=1;" parent="1" source="k8yjsMtkOnoYZO6GgDGE-5" target="BeKyxp2tZrk1aa1WLt2o-14" edge="1">
          <mxGeometry relative="1" as="geometry" />
        </mxCell>
        <mxCell id="k8yjsMtkOnoYZO6GgDGE-5" value="Bus" style="swimlane;fontStyle=1;align=center;verticalAlign=top;childLayout=stackLayout;horizontal=1;startSize=26;horizontalStack=0;resizeParent=1;resizeParentMax=0;resizeLast=0;collapsible=1;marginBottom=0;whiteSpace=wrap;html=1;" parent="1" vertex="1">
          <mxGeometry x="423" y="434" width="280" height="340" as="geometry" />
        </mxCell>
        <mxCell id="k8yjsMtkOnoYZO6GgDGE-6" value="#route: list&amp;lt;BusStop&amp;gt;&amp;nbsp; //버스정류장리스트&lt;br&gt;#starting_time: TIme //시작시간&lt;br&gt;#end_time: Time&lt;span style=&quot;white-space: pre;&quot;&gt;&#x9;&lt;/span&gt;//출발시간" style="text;strokeColor=none;fillColor=none;align=left;verticalAlign=top;spacingLeft=4;spacingRight=4;overflow=hidden;rotatable=0;points=[[0,0.5],[1,0.5]];portConstraint=eastwest;whiteSpace=wrap;html=1;" parent="k8yjsMtkOnoYZO6GgDGE-5" vertex="1">
          <mxGeometry y="26" width="280" height="64" as="geometry" />
        </mxCell>
        <mxCell id="k8yjsMtkOnoYZO6GgDGE-7" value="" style="line;strokeWidth=1;fillColor=none;align=left;verticalAlign=middle;spacingTop=-1;spacingLeft=3;spacingRight=3;rotatable=0;labelPosition=right;points=[];portConstraint=eastwest;strokeColor=inherit;" parent="k8yjsMtkOnoYZO6GgDGE-5" vertex="1">
          <mxGeometry y="90" width="280" height="10" as="geometry" />
        </mxCell>
        <mxCell id="EtT6H8eILe-Dx6ZA66NK-11" value="+list_init : virtual void//버스정류장리스트 초기화" style="text;html=1;align=left;verticalAlign=middle;resizable=0;points=[];autosize=1;strokeColor=none;fillColor=none;" vertex="1" parent="k8yjsMtkOnoYZO6GgDGE-5">
          <mxGeometry y="100" width="280" height="30" as="geometry" />
        </mxCell>
        <mxCell id="EtT6H8eILe-Dx6ZA66NK-17" value="+addBusStop //리스트에 버스정류장추가" style="text;html=1;align=left;verticalAlign=middle;resizable=0;points=[];autosize=1;strokeColor=none;fillColor=none;" vertex="1" parent="k8yjsMtkOnoYZO6GgDGE-5">
          <mxGeometry y="130" width="280" height="30" as="geometry" />
        </mxCell>
        <mxCell id="EtT6H8eILe-Dx6ZA66NK-18" value="+print_info //버스 정류장 리스트 경로 출력" style="text;html=1;align=left;verticalAlign=middle;resizable=0;points=[];autosize=1;strokeColor=none;fillColor=none;" vertex="1" parent="k8yjsMtkOnoYZO6GgDGE-5">
          <mxGeometry y="160" width="280" height="30" as="geometry" />
        </mxCell>
        <mxCell id="EtT6H8eILe-Dx6ZA66NK-10" value="+print_current_location //버스 현재위치 출력" style="text;html=1;align=left;verticalAlign=middle;resizable=0;points=[];autosize=1;strokeColor=none;fillColor=none;" vertex="1" parent="k8yjsMtkOnoYZO6GgDGE-5">
          <mxGeometry y="190" width="280" height="30" as="geometry" />
        </mxCell>
        <mxCell id="EtT6H8eILe-Dx6ZA66NK-16" value="+get_current_loacation //버스 현재위치 반환" style="text;html=1;align=left;verticalAlign=middle;resizable=0;points=[];autosize=1;strokeColor=none;fillColor=none;" vertex="1" parent="k8yjsMtkOnoYZO6GgDGE-5">
          <mxGeometry y="220" width="280" height="30" as="geometry" />
        </mxCell>
        <mxCell id="EtT6H8eILe-Dx6ZA66NK-19" value="+calcul_time //버스 정류장 간 소요시간 계산" style="text;html=1;align=left;verticalAlign=middle;resizable=0;points=[];autosize=1;strokeColor=none;fillColor=none;" vertex="1" parent="k8yjsMtkOnoYZO6GgDGE-5">
          <mxGeometry y="250" width="280" height="30" as="geometry" />
        </mxCell>
        <mxCell id="EtT6H8eILe-Dx6ZA66NK-20" value="is_having_BusStop // 해당 정류장 포함 판단" style="text;html=1;align=left;verticalAlign=middle;resizable=0;points=[];autosize=1;strokeColor=none;fillColor=none;" vertex="1" parent="k8yjsMtkOnoYZO6GgDGE-5">
          <mxGeometry y="280" width="280" height="30" as="geometry" />
        </mxCell>
        <mxCell id="EtT6H8eILe-Dx6ZA66NK-21" value="isDriving&amp;nbsp; //현재 운행 중인지 판단" style="text;html=1;align=left;verticalAlign=middle;resizable=0;points=[];autosize=1;strokeColor=none;fillColor=none;" vertex="1" parent="k8yjsMtkOnoYZO6GgDGE-5">
          <mxGeometry y="310" width="280" height="30" as="geometry" />
        </mxCell>
        <mxCell id="EtT6H8eILe-Dx6ZA66NK-75" style="edgeStyle=orthogonalEdgeStyle;rounded=0;orthogonalLoop=1;jettySize=auto;html=1;" edge="1" parent="1" source="k8yjsMtkOnoYZO6GgDGE-9" target="EtT6H8eILe-Dx6ZA66NK-21">
          <mxGeometry relative="1" as="geometry" />
        </mxCell>
        <mxCell id="k8yjsMtkOnoYZO6GgDGE-9" value="circluarRoute" style="swimlane;fontStyle=1;align=center;verticalAlign=top;childLayout=stackLayout;horizontal=1;startSize=26;horizontalStack=0;resizeParent=1;resizeParentMax=0;resizeLast=0;collapsible=1;marginBottom=0;whiteSpace=wrap;html=1;" parent="1" vertex="1">
          <mxGeometry x="269" y="808" width="226" height="78" as="geometry" />
        </mxCell>
        <mxCell id="k8yjsMtkOnoYZO6GgDGE-12" value="+list_init :over_riding" style="text;strokeColor=none;fillColor=none;align=left;verticalAlign=top;spacingLeft=4;spacingRight=4;overflow=hidden;rotatable=0;points=[[0,0.5],[1,0.5]];portConstraint=eastwest;whiteSpace=wrap;html=1;" parent="k8yjsMtkOnoYZO6GgDGE-9" vertex="1">
          <mxGeometry y="26" width="226" height="26" as="geometry" />
        </mxCell>
        <mxCell id="EtT6H8eILe-Dx6ZA66NK-30" value="+print_currentlocation: over_riding" style="text;strokeColor=none;fillColor=none;align=left;verticalAlign=top;spacingLeft=4;spacingRight=4;overflow=hidden;rotatable=0;points=[[0,0.5],[1,0.5]];portConstraint=eastwest;whiteSpace=wrap;html=1;" vertex="1" parent="k8yjsMtkOnoYZO6GgDGE-9">
          <mxGeometry y="52" width="226" height="26" as="geometry" />
        </mxCell>
        <mxCell id="k8yjsMtkOnoYZO6GgDGE-51" value="Person" style="swimlane;fontStyle=1;align=center;verticalAlign=top;childLayout=stackLayout;horizontal=1;startSize=26;horizontalStack=0;resizeParent=1;resizeParentMax=0;resizeLast=0;collapsible=1;marginBottom=0;whiteSpace=wrap;html=1;" parent="1" vertex="1">
          <mxGeometry x="769" y="452" width="372" height="260" as="geometry" />
        </mxCell>
        <mxCell id="k8yjsMtkOnoYZO6GgDGE-52" value="#starting_location :string //현재위치&lt;br&gt;#target_location: string //타겟위치&lt;br&gt;#current_time: static Time // 현재시간(전역변수)&lt;br&gt;#starting_location_map :WalkingMap //has-a&lt;br&gt;#target_location_map: WalkingMap //has-a" style="text;strokeColor=none;fillColor=none;align=left;verticalAlign=top;spacingLeft=4;spacingRight=4;overflow=hidden;rotatable=0;points=[[0,0.5],[1,0.5]];portConstraint=eastwest;whiteSpace=wrap;html=1;" parent="k8yjsMtkOnoYZO6GgDGE-51" vertex="1">
          <mxGeometry y="26" width="372" height="74" as="geometry" />
        </mxCell>
        <mxCell id="k8yjsMtkOnoYZO6GgDGE-53" value="" style="line;strokeWidth=1;fillColor=none;align=left;verticalAlign=middle;spacingTop=-1;spacingLeft=3;spacingRight=3;rotatable=0;labelPosition=right;points=[];portConstraint=eastwest;strokeColor=inherit;" parent="k8yjsMtkOnoYZO6GgDGE-51" vertex="1">
          <mxGeometry y="100" width="372" height="10" as="geometry" />
        </mxCell>
        <mxCell id="EtT6H8eILe-Dx6ZA66NK-69" value="+Person //출발지점과 타겟지점을 입력받는 생성자" style="text;html=1;align=left;verticalAlign=middle;resizable=0;points=[];autosize=1;strokeColor=none;fillColor=none;" vertex="1" parent="k8yjsMtkOnoYZO6GgDGE-51">
          <mxGeometry y="110" width="372" height="30" as="geometry" />
        </mxCell>
        <mxCell id="EtT6H8eILe-Dx6ZA66NK-70" value="+findStartBusStop //현재위치에서 가장 가까운 버스정류장 탐색" style="text;html=1;align=left;verticalAlign=middle;resizable=0;points=[];autosize=1;strokeColor=none;fillColor=none;" vertex="1" parent="k8yjsMtkOnoYZO6GgDGE-51">
          <mxGeometry y="140" width="372" height="30" as="geometry" />
        </mxCell>
        <mxCell id="EtT6H8eILe-Dx6ZA66NK-71" value="+findTargetBusStop //타겟위치에서 가장 가까운 버스정류장 탐색" style="text;html=1;align=left;verticalAlign=middle;resizable=0;points=[];autosize=1;strokeColor=none;fillColor=none;" vertex="1" parent="k8yjsMtkOnoYZO6GgDGE-51">
          <mxGeometry y="170" width="372" height="30" as="geometry" />
        </mxCell>
        <mxCell id="EtT6H8eILe-Dx6ZA66NK-72" value="+getStartWalkingTime//시작지점까지 걸어가는 시간 반환" style="text;html=1;align=left;verticalAlign=middle;resizable=0;points=[];autosize=1;strokeColor=none;fillColor=none;" vertex="1" parent="k8yjsMtkOnoYZO6GgDGE-51">
          <mxGeometry y="200" width="372" height="30" as="geometry" />
        </mxCell>
        <mxCell id="EtT6H8eILe-Dx6ZA66NK-73" value="+getTargetWalkingTime//타겟에서 목적지점까지 걸어가는 시간 반환" style="text;html=1;align=left;verticalAlign=middle;resizable=0;points=[];autosize=1;strokeColor=none;fillColor=none;" vertex="1" parent="k8yjsMtkOnoYZO6GgDGE-51">
          <mxGeometry y="230" width="372" height="30" as="geometry" />
        </mxCell>
        <mxCell id="EtT6H8eILe-Dx6ZA66NK-44" style="edgeStyle=orthogonalEdgeStyle;rounded=0;orthogonalLoop=1;jettySize=auto;html=1;" edge="1" parent="1" source="BeKyxp2tZrk1aa1WLt2o-5" target="k8yjsMtkOnoYZO6GgDGE-51">
          <mxGeometry relative="1" as="geometry" />
        </mxCell>
        <mxCell id="BeKyxp2tZrk1aa1WLt2o-5" value="WalkingMap" style="swimlane;fontStyle=1;align=center;verticalAlign=top;childLayout=stackLayout;horizontal=1;startSize=26;horizontalStack=0;resizeParent=1;resizeParentMax=0;resizeLast=0;collapsible=1;marginBottom=0;whiteSpace=wrap;html=1;" parent="1" vertex="1">
          <mxGeometry x="1274" y="469" width="360" height="84" as="geometry" />
        </mxCell>
        <mxCell id="BeKyxp2tZrk1aa1WLt2o-6" value="#map&amp;lt;string, int&amp;gt; //건물과 거리시간을 포함하는 맵" style="text;strokeColor=none;fillColor=none;align=left;verticalAlign=top;spacingLeft=4;spacingRight=4;overflow=hidden;rotatable=0;points=[[0,0.5],[1,0.5]];portConstraint=eastwest;whiteSpace=wrap;html=1;" parent="BeKyxp2tZrk1aa1WLt2o-5" vertex="1">
          <mxGeometry y="26" width="360" height="26" as="geometry" />
        </mxCell>
        <mxCell id="BeKyxp2tZrk1aa1WLt2o-7" value="" style="line;strokeWidth=1;fillColor=none;align=left;verticalAlign=middle;spacingTop=-1;spacingLeft=3;spacingRight=3;rotatable=0;labelPosition=right;points=[];portConstraint=eastwest;strokeColor=inherit;" parent="BeKyxp2tZrk1aa1WLt2o-5" vertex="1">
          <mxGeometry y="52" width="360" height="2" as="geometry" />
        </mxCell>
        <mxCell id="EtT6H8eILe-Dx6ZA66NK-65" value="+WalkingMap /// 시작위치를 입력받아 맵을 초기화 하는 생성자" style="text;html=1;align=center;verticalAlign=middle;resizable=0;points=[];autosize=1;strokeColor=none;fillColor=none;" vertex="1" parent="BeKyxp2tZrk1aa1WLt2o-5">
          <mxGeometry y="54" width="360" height="30" as="geometry" />
        </mxCell>
        <mxCell id="BeKyxp2tZrk1aa1WLt2o-11" value="Time" style="swimlane;fontStyle=1;align=center;verticalAlign=top;childLayout=stackLayout;horizontal=1;startSize=26;horizontalStack=0;resizeParent=1;resizeParentMax=0;resizeLast=0;collapsible=1;marginBottom=0;whiteSpace=wrap;html=1;" parent="1" vertex="1">
          <mxGeometry x="20" y="461" width="160" height="220" as="geometry" />
        </mxCell>
        <mxCell id="BeKyxp2tZrk1aa1WLt2o-12" value="&lt;div&gt;#hour :&amp;nbsp;int&amp;nbsp; &amp;nbsp; &amp;nbsp; //시&lt;/div&gt;&lt;div&gt;#minute: int&amp;nbsp; &amp;nbsp; //분&lt;/div&gt;&lt;div&gt;#second : int&amp;nbsp; &amp;nbsp; //초&lt;/div&gt;&lt;div&gt;&lt;br&gt;&lt;/div&gt;" style="text;strokeColor=none;fillColor=none;align=left;verticalAlign=top;spacingLeft=4;spacingRight=4;overflow=hidden;rotatable=0;points=[[0,0.5],[1,0.5]];portConstraint=eastwest;whiteSpace=wrap;html=1;" parent="BeKyxp2tZrk1aa1WLt2o-11" vertex="1">
          <mxGeometry y="26" width="160" height="64" as="geometry" />
        </mxCell>
        <mxCell id="BeKyxp2tZrk1aa1WLt2o-13" value="" style="line;strokeWidth=1;fillColor=none;align=left;verticalAlign=middle;spacingTop=-1;spacingLeft=3;spacingRight=3;rotatable=0;labelPosition=right;points=[];portConstraint=eastwest;strokeColor=inherit;" parent="BeKyxp2tZrk1aa1WLt2o-11" vertex="1">
          <mxGeometry y="90" width="160" height="10" as="geometry" />
        </mxCell>
        <mxCell id="EtT6H8eILe-Dx6ZA66NK-9" value="+time ordering //시간정렬" style="text;html=1;align=left;verticalAlign=middle;resizable=0;points=[];autosize=1;strokeColor=none;fillColor=none;" vertex="1" parent="BeKyxp2tZrk1aa1WLt2o-11">
          <mxGeometry y="100" width="160" height="30" as="geometry" />
        </mxCell>
        <mxCell id="EtT6H8eILe-Dx6ZA66NK-2" value="+time operator //시간연산" style="text;html=1;align=left;verticalAlign=middle;resizable=0;points=[];autosize=1;strokeColor=none;fillColor=none;" vertex="1" parent="BeKyxp2tZrk1aa1WLt2o-11">
          <mxGeometry y="130" width="160" height="30" as="geometry" />
        </mxCell>
        <mxCell id="EtT6H8eILe-Dx6ZA66NK-3" value="+get time //시간 가져오기" style="text;html=1;align=left;verticalAlign=middle;resizable=0;points=[];autosize=1;strokeColor=none;fillColor=none;" vertex="1" parent="BeKyxp2tZrk1aa1WLt2o-11">
          <mxGeometry y="160" width="160" height="30" as="geometry" />
        </mxCell>
        <mxCell id="EtT6H8eILe-Dx6ZA66NK-6" value="+print time //시간 출력" style="text;html=1;align=left;verticalAlign=middle;resizable=0;points=[];autosize=1;strokeColor=none;fillColor=none;" vertex="1" parent="BeKyxp2tZrk1aa1WLt2o-11">
          <mxGeometry y="190" width="160" height="30" as="geometry" />
        </mxCell>
        <mxCell id="wdRNz5dSl2-y0wFpCwA7-2" style="edgeStyle=orthogonalEdgeStyle;rounded=0;orthogonalLoop=1;jettySize=auto;html=1;" parent="1" source="BeKyxp2tZrk1aa1WLt2o-14" edge="1">
          <mxGeometry relative="1" as="geometry">
            <mxPoint x="179" y="572" as="targetPoint" />
          </mxGeometry>
        </mxCell>
        <mxCell id="BeKyxp2tZrk1aa1WLt2o-14" value="BusStop" style="swimlane;fontStyle=1;align=center;verticalAlign=top;childLayout=stackLayout;horizontal=1;startSize=26;horizontalStack=0;resizeParent=1;resizeParentMax=0;resizeLast=0;collapsible=1;marginBottom=0;whiteSpace=wrap;html=1;" parent="1" vertex="1">
          <mxGeometry x="213" y="553" width="180" height="78" as="geometry" />
        </mxCell>
        <mxCell id="BeKyxp2tZrk1aa1WLt2o-15" value="#name: string //정류장 이름&lt;br&gt;#stop_time : Time //정류장시간" style="text;strokeColor=none;fillColor=none;align=left;verticalAlign=top;spacingLeft=4;spacingRight=4;overflow=hidden;rotatable=0;points=[[0,0.5],[1,0.5]];portConstraint=eastwest;whiteSpace=wrap;html=1;" parent="BeKyxp2tZrk1aa1WLt2o-14" vertex="1">
          <mxGeometry y="26" width="180" height="44" as="geometry" />
        </mxCell>
        <mxCell id="BeKyxp2tZrk1aa1WLt2o-16" value="" style="line;strokeWidth=1;fillColor=none;align=left;verticalAlign=middle;spacingTop=-1;spacingLeft=3;spacingRight=3;rotatable=0;labelPosition=right;points=[];portConstraint=eastwest;strokeColor=inherit;" parent="BeKyxp2tZrk1aa1WLt2o-14" vertex="1">
          <mxGeometry y="70" width="180" height="8" as="geometry" />
        </mxCell>
        <mxCell id="BeKyxp2tZrk1aa1WLt2o-19" style="edgeStyle=orthogonalEdgeStyle;rounded=0;orthogonalLoop=1;jettySize=auto;html=1;exitX=1;exitY=0.5;exitDx=0;exitDy=0;" parent="BeKyxp2tZrk1aa1WLt2o-14" source="BeKyxp2tZrk1aa1WLt2o-15" target="BeKyxp2tZrk1aa1WLt2o-15" edge="1">
          <mxGeometry relative="1" as="geometry" />
        </mxCell>
        <mxCell id="k8yjsMtkOnoYZO6GgDGE-13" value="oneWayRoute" style="swimlane;fontStyle=1;align=center;verticalAlign=top;childLayout=stackLayout;horizontal=1;startSize=30;horizontalStack=0;resizeParent=1;resizeParentMax=0;resizeLast=0;collapsible=1;marginBottom=0;whiteSpace=wrap;html=1;" parent="1" vertex="1">
          <mxGeometry x="630" y="808" width="230" height="90" as="geometry">
            <mxRectangle x="550" y="188" width="140" height="30" as="alternateBounds" />
          </mxGeometry>
        </mxCell>
        <mxCell id="k8yjsMtkOnoYZO6GgDGE-15" value="" style="line;strokeWidth=1;fillColor=none;align=left;verticalAlign=middle;spacingTop=-1;spacingLeft=3;spacingRight=3;rotatable=0;labelPosition=right;points=[];portConstraint=eastwest;strokeColor=inherit;" parent="k8yjsMtkOnoYZO6GgDGE-13" vertex="1">
          <mxGeometry y="30" width="230" as="geometry" />
        </mxCell>
        <mxCell id="EtT6H8eILe-Dx6ZA66NK-25" value="+list_init :over_riding" style="text;html=1;align=left;verticalAlign=middle;resizable=0;points=[];autosize=1;strokeColor=none;fillColor=none;" vertex="1" parent="k8yjsMtkOnoYZO6GgDGE-13">
          <mxGeometry y="30" width="230" height="30" as="geometry" />
        </mxCell>
        <mxCell id="EtT6H8eILe-Dx6ZA66NK-26" value="+print_currentlocation: over_riding" style="text;html=1;align=left;verticalAlign=middle;resizable=0;points=[];autosize=1;strokeColor=none;fillColor=none;" vertex="1" parent="k8yjsMtkOnoYZO6GgDGE-13">
          <mxGeometry y="60" width="230" height="30" as="geometry" />
        </mxCell>
        <mxCell id="EtT6H8eILe-Dx6ZA66NK-31" value="DrivingTime" style="swimlane;fontStyle=0;childLayout=stackLayout;horizontal=1;startSize=30;horizontalStack=0;resizeParent=1;resizeParentMax=0;resizeLast=0;collapsible=1;marginBottom=0;whiteSpace=wrap;html=1;" vertex="1" parent="1">
          <mxGeometry x="230" y="370" width="310" height="60" as="geometry" />
        </mxCell>
        <mxCell id="EtT6H8eILe-Dx6ZA66NK-32" value="static const&amp;nbsp; int&amp;nbsp; &amp;nbsp;//정류장 간 버스&amp;nbsp; 이동 시간&amp;nbsp;" style="text;strokeColor=none;fillColor=none;align=center;verticalAlign=middle;spacingLeft=4;spacingRight=4;overflow=hidden;points=[[0,0.5],[1,0.5]];portConstraint=eastwest;rotatable=0;whiteSpace=wrap;html=1;" vertex="1" parent="EtT6H8eILe-Dx6ZA66NK-31">
          <mxGeometry y="30" width="310" height="30" as="geometry" />
        </mxCell>
        <mxCell id="EtT6H8eILe-Dx6ZA66NK-35" value="WalkingTime" style="swimlane;fontStyle=0;childLayout=stackLayout;horizontal=1;startSize=30;horizontalStack=0;resizeParent=1;resizeParentMax=0;resizeLast=0;collapsible=1;marginBottom=0;whiteSpace=wrap;html=1;" vertex="1" parent="1">
          <mxGeometry x="950" y="380" width="380" height="60" as="geometry" />
        </mxCell>
        <mxCell id="EtT6H8eILe-Dx6ZA66NK-39" value="static const int : //건물 간 사람 이동 시간" style="text;html=1;align=center;verticalAlign=middle;resizable=0;points=[];autosize=1;strokeColor=none;fillColor=none;" vertex="1" parent="EtT6H8eILe-Dx6ZA66NK-35">
          <mxGeometry y="30" width="380" height="30" as="geometry" />
        </mxCell>
        <mxCell id="EtT6H8eILe-Dx6ZA66NK-61" style="edgeStyle=orthogonalEdgeStyle;rounded=0;orthogonalLoop=1;jettySize=auto;html=1;entryX=1.019;entryY=0.533;entryDx=0;entryDy=0;entryPerimeter=0;" edge="1" parent="1" source="EtT6H8eILe-Dx6ZA66NK-52" target="EtT6H8eILe-Dx6ZA66NK-72">
          <mxGeometry relative="1" as="geometry">
            <Array as="points">
              <mxPoint x="1439" y="594" />
            </Array>
          </mxGeometry>
        </mxCell>
        <mxCell id="EtT6H8eILe-Dx6ZA66NK-52" value="Time" style="swimlane;fontStyle=1;align=center;verticalAlign=top;childLayout=stackLayout;horizontal=1;startSize=26;horizontalStack=0;resizeParent=1;resizeParentMax=0;resizeLast=0;collapsible=1;marginBottom=0;whiteSpace=wrap;html=1;" vertex="1" parent="1">
          <mxGeometry x="1359" y="612" width="160" height="220" as="geometry" />
        </mxCell>
        <mxCell id="EtT6H8eILe-Dx6ZA66NK-53" value="&lt;div&gt;#hour :&amp;nbsp;int&amp;nbsp; &amp;nbsp; &amp;nbsp; //시&lt;/div&gt;&lt;div&gt;#minute: int&amp;nbsp; &amp;nbsp; //분&lt;/div&gt;&lt;div&gt;#second : int&amp;nbsp; &amp;nbsp; //초&lt;/div&gt;&lt;div&gt;&lt;br&gt;&lt;/div&gt;" style="text;strokeColor=none;fillColor=none;align=left;verticalAlign=top;spacingLeft=4;spacingRight=4;overflow=hidden;rotatable=0;points=[[0,0.5],[1,0.5]];portConstraint=eastwest;whiteSpace=wrap;html=1;" vertex="1" parent="EtT6H8eILe-Dx6ZA66NK-52">
          <mxGeometry y="26" width="160" height="64" as="geometry" />
        </mxCell>
        <mxCell id="EtT6H8eILe-Dx6ZA66NK-54" value="" style="line;strokeWidth=1;fillColor=none;align=left;verticalAlign=middle;spacingTop=-1;spacingLeft=3;spacingRight=3;rotatable=0;labelPosition=right;points=[];portConstraint=eastwest;strokeColor=inherit;" vertex="1" parent="EtT6H8eILe-Dx6ZA66NK-52">
          <mxGeometry y="90" width="160" height="10" as="geometry" />
        </mxCell>
        <mxCell id="EtT6H8eILe-Dx6ZA66NK-55" value="+time ordering //시간정렬" style="text;html=1;align=left;verticalAlign=middle;resizable=0;points=[];autosize=1;strokeColor=none;fillColor=none;" vertex="1" parent="EtT6H8eILe-Dx6ZA66NK-52">
          <mxGeometry y="100" width="160" height="30" as="geometry" />
        </mxCell>
        <mxCell id="EtT6H8eILe-Dx6ZA66NK-56" value="+time operator //시간연산" style="text;html=1;align=left;verticalAlign=middle;resizable=0;points=[];autosize=1;strokeColor=none;fillColor=none;" vertex="1" parent="EtT6H8eILe-Dx6ZA66NK-52">
          <mxGeometry y="130" width="160" height="30" as="geometry" />
        </mxCell>
        <mxCell id="EtT6H8eILe-Dx6ZA66NK-57" value="+get time //시간 가져오기" style="text;html=1;align=left;verticalAlign=middle;resizable=0;points=[];autosize=1;strokeColor=none;fillColor=none;" vertex="1" parent="EtT6H8eILe-Dx6ZA66NK-52">
          <mxGeometry y="160" width="160" height="30" as="geometry" />
        </mxCell>
        <mxCell id="EtT6H8eILe-Dx6ZA66NK-58" value="+print time //시간 출력" style="text;html=1;align=left;verticalAlign=middle;resizable=0;points=[];autosize=1;strokeColor=none;fillColor=none;" vertex="1" parent="EtT6H8eILe-Dx6ZA66NK-52">
          <mxGeometry y="190" width="160" height="30" as="geometry" />
        </mxCell>
        <mxCell id="EtT6H8eILe-Dx6ZA66NK-76" style="edgeStyle=orthogonalEdgeStyle;rounded=0;orthogonalLoop=1;jettySize=auto;html=1;entryX=0.514;entryY=1.261;entryDx=0;entryDy=0;entryPerimeter=0;" edge="1" parent="1" source="k8yjsMtkOnoYZO6GgDGE-13" target="EtT6H8eILe-Dx6ZA66NK-21">
          <mxGeometry relative="1" as="geometry" />
        </mxCell>
        <mxCell id="EtT6H8eILe-Dx6ZA66NK-79" value="Static Time" style="swimlane;whiteSpace=wrap;html=1;startSize=23;" vertex="1" parent="1">
          <mxGeometry x="650" y="360" width="200" height="50" as="geometry" />
        </mxCell>
        <mxCell id="EtT6H8eILe-Dx6ZA66NK-81" value="current_time: static Time" style="text;html=1;align=center;verticalAlign=middle;resizable=0;points=[];autosize=1;strokeColor=none;fillColor=none;" vertex="1" parent="EtT6H8eILe-Dx6ZA66NK-79">
          <mxGeometry x="25" y="20" width="150" height="30" as="geometry" />
        </mxCell>
      </root>
    </mxGraphModel>
  </diagram>
</mxfile>
